<?xml version="1.0" encoding="UTF-8"?>
<svg id="Master_with_tag" data-name="Master with tag" xmlns="http://www.w3.org/2000/svg" version="1.1" viewBox="0 0 1080 1080">
  <defs>
    <style>
      .cls-1 {
        fill: #ed1c24;
      }

      .cls-1, .cls-2 {
        stroke-width: 0px;
      }

      .cls-2 {
        fill: #fff;
      }
    </style>
  </defs>
  <g>
    <polygon class="cls-1" points="162.5759 412.1946 172.622 478.9029 1026.8586 496.8852 152.2113 496.8852 162.5759 412.1946"/>
    <polygon class="cls-2" points="50.9874 500.9763 152.0893 518.9585 164.4982 636.3132 172.5 500.9763 50.9874 500.9763"/>
  </g>
  <g>
    <path class="cls-2" d="M186.8457,596.4849l12.3213-58.2583h-20.5762l3.9482-18.7812h66.9912l-3.9482,18.7812h-20.6953l-12.3213,58.2583h-25.7197Z"/>
    <path class="cls-2" d="M238.0459,596.4849l16.2695-77.0396h25.7197l-5.623,26.916h22.8496l5.6221-26.916h25.7197l-16.2695,77.0396h-25.7197l5.623-26.916h-22.8486l-5.623,26.916h-25.7197Z"/>
    <path class="cls-2" d="M322.0234,596.4849l16.2695-77.0396h41.6299c7.3369,0,13.0186,1.9551,17.0469,5.8613,4.0264,3.9087,6.041,9.0527,6.041,15.4321,0,2.1533-.2393,4.4263-.7178,6.8188-1.0371,5.1851-3.1904,9.7495-6.46,13.6973-3.2705,3.9478-7.377,7.0786-12.3213,9.3906.7178.6392,1.2949,1.417,1.7344,2.3325.4375.918.7773,1.8955,1.0166,2.9312l4.666,20.5757h-26.7969l-4.1865-17.8242c-.2393-1.1162-.6396-1.9331-1.1963-2.4526-.5586-.5176-1.5156-.7773-2.8711-.7773h-3.708l-4.4268,21.0542h-25.7197ZM356.3564,555.5723h9.4502c3.2695,0,5.6621-.6763,7.1777-2.0337,1.5146-1.355,2.5518-3.3491,3.1104-5.981.2393-1.1963.3594-2.2729.3594-3.23,0-1.6748-.499-2.9106-1.4961-3.7085-.998-.7964-2.6914-1.1963-5.084-1.1963h-10.0488l-3.4688,16.1494Z"/>
    <path class="cls-2" d="M434.8301,597.6812c-6.6211,0-12.4229-.9775-17.4062-2.9307-4.9844-1.9536-8.8516-4.9834-11.6035-9.0918-2.751-4.1064-4.127-9.3906-4.127-15.8506,0-1.8335.0986-3.7085.2988-5.6226.1982-1.9141.5381-3.9478,1.0166-6.1011,2.0732-9.6484,5.1631-17.3853,9.2715-23.2075,4.1064-5.8208,9.4092-10.0488,15.9102-12.6807,6.499-2.6313,14.374-3.9473,23.627-3.9473,10.207,0,18.2822,2.2725,24.2236,6.8184,5.9404,4.5459,8.9131,11.645,8.9131,21.2939,0,1.7549-.1016,3.6094-.2998,5.5625-.1992,1.9551-.5381,4.0073-1.0166,6.1606-1.9941,9.4917-5.0449,17.1479-9.1514,22.9688-4.1084,5.8223-9.4111,10.0483-15.9102,12.6802-6.501,2.6318-14.415,3.9478-23.7461,3.9478ZM439.4951,575.9092c4.9443,0,8.8115-1.3945,11.6045-4.187,2.79-2.7905,4.8633-7.3364,6.2207-13.6377.7178-3.3496,1.0762-6.1401,1.0762-8.3735,0-3.5088-.8789-5.9814-2.6318-7.417-1.7549-1.4355-4.626-2.1533-8.6133-2.1533-5.0244,0-8.9326,1.3364-11.7236,4.0073-2.792,2.6729-4.8652,7.3179-6.2197,13.9365-.7178,3.1909-1.0771,5.9028-1.0771,8.1348,0,3.4297.8975,5.9028,2.6914,7.417,1.7949,1.5156,4.6846,2.2729,8.6729,2.2729Z"/>
    <path class="cls-2" d="M497.3945,596.4849l12.3213-58.2583h-20.5762l3.9482-18.7812h66.9912l-3.9482,18.7812h-20.6953l-12.3213,58.2583h-25.7197Z"/>
    <path class="cls-2" d="M568.5713,596.4849l12.3213-58.2583h-20.5762l3.9482-18.7812h66.9912l-3.9482,18.7812h-20.6953l-12.3213,58.2583h-25.7197Z"/>
    <path class="cls-2" d="M619.7705,596.4849l16.2695-77.0396h25.7197l-12.2021,57.4209h33.0176l-4.0674,19.6187h-58.7373Z"/>
    <path class="cls-2" d="M683.4121,596.4849l16.2695-77.0396h59.9326l-3.9473,19.0205h-34.2139l-2.1533,9.8096h29.7871l-4.0664,19.499h-29.7871l-2.1533,9.6899h34.2129l-3.9473,19.0205h-59.9336Z"/>
    <path class="cls-1" d="M791.6729,597.6812c-7.417,0-13.8965-1.1367-19.4395-3.4092-5.5439-2.2729-9.8691-5.6226-12.9795-10.0488s-4.665-9.8691-4.665-16.3291c0-3.0298.3584-6.2598,1.0762-9.6899,2.791-13.0786,8.333-23.0073,16.6289-29.7871,8.293-6.7773,20.3359-10.168,36.127-10.168,4.7051,0,8.9121.3589,12.6211,1.0767,3.708.7178,7.1562,1.7549,10.3477,3.1099l-4.7852,22.3706c-3.1904-1.6748-6.3613-2.8896-9.5107-3.6489-3.1514-.7568-6.998-1.1362-11.5439-1.1362-6.46,0-11.6836,1.3755-15.6709,4.127-3.9893,2.7515-6.6602,7.4375-8.0146,14.0562-.2393,1.2769-.4395,2.4731-.5986,3.5889-.1611,1.1177-.2393,2.1533-.2393,3.1104,0,4.0674,1.335,6.9199,4.0078,8.5532,2.6709,1.6357,7.0371,2.4526,13.0986,2.4526,3.9072,0,7.7559-.3779,11.5439-1.1367,3.7871-.7568,7.6357-1.9326,11.5439-3.5288l-4.7852,22.4897c-3.749,1.2769-7.5957,2.2544-11.5439,2.9307-3.9473.6768-8.3545,1.0171-13.2188,1.0171Z"/>
    <path class="cls-1" d="M854.5967,597.6812c-9.4111,0-16.5684-1.873-21.4727-5.6226-4.9053-3.7476-7.3574-9.1309-7.3574-16.1494,0-1.1963.0596-2.4526.1797-3.7686.1191-1.3159.3379-2.6504.6572-4.0073,2.0732-9.729,6.2998-17.0859,12.6807-22.0713,6.3799-4.9829,15.6719-7.4766,27.873-7.4766,9.5703,0,16.8262,1.8955,21.7725,5.6821,4.9443,3.7891,7.417,9.2319,7.417,16.3291,0,1.1963-.0801,2.4131-.2393,3.6489-.1611,1.2373-.3594,2.5327-.5986,3.8877-1.9941,9.731-6.2412,17.0879-12.7402,22.0713-6.501,4.9849-15.8916,7.4766-28.1719,7.4766ZM858.5439,579.1392c2.8711,0,5.1836-.8374,6.9385-2.5122,1.7539-1.6748,3.0303-4.5049,3.8281-8.4937.4785-2.0728.7178-3.7871.7178-5.144,0-2.0728-.5381-3.5684-1.6143-4.4858-1.0771-.916-2.8115-1.376-5.2041-1.376-2.793,0-5.0059.8374-6.6396,2.5122-1.6357,1.6748-2.8916,4.5068-3.7676,8.4937-.4785,2.1533-.7178,3.9478-.7178,5.3833,0,1.9941.5176,3.4297,1.5547,4.3066,1.0352.8784,2.6709,1.3159,4.9043,1.3159Z"/>
    <path class="cls-1" d="M910.2236,596.4849l-10.4072-56.7031h26.0781l2.752,29.6675,15.3125-29.6675h27.5137l-34.333,56.7031h-26.916Z"/>
    <path class="cls-1" d="M991.8096,597.6812c-5.583,0-10.5479-.8579-14.8936-2.5718-4.3477-1.7144-7.7754-4.2471-10.2881-7.5967-2.5117-3.3496-3.7686-7.4951-3.7686-12.4409,0-2.0732.2393-4.3066.7178-6.6992,1.3555-6.0601,3.4492-11.3047,6.2812-15.731,2.8291-4.4263,6.7773-7.875,11.8428-10.3477,5.0635-2.4712,11.583-3.7085,19.5586-3.7085,7.8955,0,14.1348,1.9736,18.7217,5.9214,4.585,3.9478,6.8789,9.1123,6.8789,15.4917,0,.8784-.0596,1.7944-.1797,2.7515-.1191.957-.2598,1.9141-.4189,2.8711l-2.0332,9.8096h-38.5195c.3975,2.314,1.833,3.9888,4.3066,5.0244,2.4707,1.0371,6.3789,1.5547,11.7227,1.5547,3.5088,0,6.9775-.2988,10.4082-.897,3.4277-.5981,6.2207-1.2954,8.374-2.0933l-3.1104,14.5942c-6.2207,2.7124-14.7559,4.0674-25.6006,4.0674ZM987.3838,562.0322h18.9004l.2393-1.5552c.2393-1.6748-.2598-3.1104-1.4951-4.3066-1.2373-1.1963-3.3311-1.7944-6.2803-1.7944-3.4297,0-6.0615.6787-7.8955,2.0337-1.8359,1.3569-2.9902,3.23-3.4688,5.6226Z"/>
  </g>
  <g>
    <path class="cls-2" d="M208.3857,630.3311c0,1.0967-.334,2.0986-1.002,3.0059s-1.5703,1.6299-2.707,2.168c-1.1357.5386-2.3926.8076-3.7676.8076h-16.7178v-2.9907h16.7178c.8174,0,1.5645-.1348,2.2432-.4038.6768-.269,1.2207-.6328,1.6299-1.0913.4082-.4585.6123-.957.6123-1.4956v-1.4951h-13.7266c-1.376,0-2.627-.3389-3.7539-1.0171-1.126-.6772-2.0283-1.5796-2.7061-2.7065-.6777-1.126-1.0166-2.3774-1.0166-3.7534v-5.981h2.9902v5.981c0,.8179.1992,1.5703.5986,2.2583.3984.688.9414,1.2314,1.6299,1.6299.6875.3989,1.4395.5981,2.2578.5981h13.7266v-10.4673h2.9912v14.9531Z"/>
    <path class="cls-2" d="M231.6533,628.0581c0,1.5156-.3145,2.8965-.9424,4.1421-.6279,1.2466-1.5107,2.2432-2.6465,2.9907-1.1367.7476-2.4629,1.1216-3.9775,1.1216h-5.2041c-1.5156,0-2.8467-.374-3.9922-1.1216-1.1475-.7476-2.0342-1.7441-2.6621-2.9907-.6279-1.2456-.9424-2.6265-.9424-4.1421,0-1.5146.3145-2.8906.9424-4.127.6279-1.2358,1.5146-2.2231,2.6621-2.9609,1.1455-.7373,2.4766-1.1064,3.9922-1.1064h5.2041c1.5146,0,2.8408.3691,3.9775,1.1064,1.1357.7378,2.0186,1.7251,2.6465,2.9609.6279,1.2363.9424,2.6123.9424,4.127ZM228.6621,628.0581c0-.957-.1797-1.834-.5381-2.6318-.3594-.7969-.8818-1.4302-1.5703-1.8989-.6875-.4683-1.5098-.7026-2.4668-.7026h-5.2041c-.957,0-1.7793.2344-2.4678.7026-.6875.4688-1.2158,1.1021-1.585,1.8989-.3691.7979-.5527,1.6748-.5527,2.6318s.1836,1.835.5527,2.6318c.3691.7979.8975,1.4355,1.585,1.9141.6885.4785,1.5107.7178,2.4678.7178h5.2041c.957,0,1.7793-.2393,2.4668-.7178.6885-.4785,1.2109-1.1162,1.5703-1.9141.3584-.7969.5381-1.6748.5381-2.6318Z"/>
    <path class="cls-2" d="M252.2881,619.8638v8.2246c0,1.1362-.2148,2.2031-.6436,3.1997-.4287.9971-1.0166,1.8691-1.7637,2.6167-.748.748-1.6152,1.3364-2.6025,1.7646-.9863.4292-2.0479.6431-3.1846.6431h-1.6455c-1.1357,0-2.1973-.2139-3.1846-.6431-.9873-.4282-1.8545-1.0215-2.6016-1.7793-.748-.7573-1.3359-1.6299-1.7646-2.6167-.4287-.9873-.6436-2.0488-.6436-3.1851v-8.2246h2.9912v8.2246c0,.9565.2344,1.8345.7021,2.6313.4688.7979,1.0967,1.4312,1.8848,1.8994.7871.4688,1.6592.7026,2.6162.7026h1.6455c.9766,0,1.8545-.2339,2.6318-.7026.7773-.4683,1.4004-1.1016,1.8691-1.8994.4678-.7969.7021-1.6748.7021-2.6313v-8.2246h2.9912Z"/>
    <path class="cls-2" d="M275.2266,636.3125h-4.0674l-4.665-4.4561h-6.0713v-2.9609h8.2842c.8369,0,1.5498-.3037,2.1387-.9121.5869-.6079.8818-1.3203.8818-2.1382,0-.8374-.2949-1.5503-.8818-2.1382-.5889-.5879-1.3018-.8823-2.1387-.8823h-9.8398v13.4878h-2.9902v-16.4487h12.8301c1.1162,0,2.123.269,3.0205.8076.8975.5381,1.6152,1.2612,2.1533,2.168.5381.9077.8076,1.9097.8076,3.0059,0,.897-.1846,1.7397-.5537,2.5269-.3691.7881-.877,1.4658-1.5254,2.0337-.6475.5684-1.3906.9722-2.2275,1.2114l4.8447,4.6953Z"/>
    <path class="cls-2" d="M313.0879,622.8545c0,1.3755-.334,2.627-1.002,3.7534s-1.5703,2.0288-2.7061,2.7065c-1.1367.6777-2.3926,1.0166-3.7686,1.0166h-12.0225v-2.9604h12.0225c.8369,0,1.5947-.2046,2.2725-.6133.6777-.4082,1.2158-.957,1.6152-1.645.3984-.6875.5986-1.4399.5986-2.2578,0-.8374-.2002-1.5947-.5986-2.2729-.3994-.6777-.9375-1.2158-1.6152-1.6147s-1.4355-.5981-2.2725-.5981h-13.6973v17.9438h-2.9912v-20.9346h16.6885c1.376,0,2.6318.334,3.7686,1.002,1.1357.668,2.0381,1.5698,2.7061,2.7065.668,1.1362,1.002,2.3921,1.002,3.7681Z"/>
    <path class="cls-2" d="M334.8008,628.0581c0,1.5156-.3145,2.8965-.9424,4.1421-.6279,1.2466-1.5107,2.2432-2.6465,2.9907-1.1367.7476-2.4629,1.1216-3.9775,1.1216h-5.2041c-1.5156,0-2.8467-.374-3.9922-1.1216-1.1475-.7476-2.0342-1.7441-2.6621-2.9907-.6279-1.2456-.9424-2.6265-.9424-4.1421,0-1.5146.3145-2.8906.9424-4.127.6279-1.2358,1.5146-2.2231,2.6621-2.9609,1.1455-.7373,2.4766-1.1064,3.9922-1.1064h5.2041c1.5146,0,2.8408.3691,3.9775,1.1064,1.1357.7378,2.0186,1.7251,2.6465,2.9609.6279,1.2363.9424,2.6123.9424,4.127ZM331.8096,628.0581c0-.957-.1797-1.834-.5381-2.6318-.3594-.7969-.8818-1.4302-1.5703-1.8989-.6875-.4683-1.5098-.7026-2.4668-.7026h-5.2041c-.957,0-1.7793.2344-2.4678.7026-.6875.4688-1.2158,1.1021-1.585,1.8989-.3691.7979-.5527,1.6748-.5527,2.6318s.1836,1.835.5527,2.6318c.3691.7979.8975,1.4355,1.585,1.9141.6885.4785,1.5107.7178,2.4678.7178h5.2041c.957,0,1.7793-.2393,2.4668-.7178.6885-.4785,1.2109-1.1162,1.5703-1.9141.3584-.7969.5381-1.6748.5381-2.6318Z"/>
    <path class="cls-2" d="M354.9873,636.3125h-10.6172c-1.5361,0-2.8818-.3687-4.0371-1.1064-1.1572-.7373-2.0537-1.7349-2.6924-2.9907-.6377-1.2563-.957-2.6514-.957-4.187s.3193-2.9204.957-4.1572c.6387-1.2358,1.5352-2.2227,2.6924-2.9604,1.1553-.7373,2.501-1.1064,4.0371-1.1064h10.6172v3.0205h-10.6172c-.957,0-1.7852.2344-2.4824.7026-.6982.4688-1.2363,1.0918-1.6152,1.8691-.3789.7778-.5684,1.6553-.5684,2.6318,0,.9771.1895,1.8647.5684,2.6616.3789.7979.917,1.4312,1.6152,1.8989.6973.4688,1.5254.7031,2.4824.7031h10.6172v3.0205Z"/>
    <path class="cls-2" d="M377.3271,636.3125h-4.0381l-7.8955-7.9253-4.5459,3.2896v4.6357h-2.9902v-16.4487h2.9902v8.374l11.7539-8.374h4.5752l-9.4805,6.8486,9.6309,9.6001Z"/>
    <path class="cls-2" d="M396.3164,636.3125h-17.166v-16.5083h17.166v3.0205h-14.1455v10.4673h14.1455v3.0205ZM394.4023,629.4937h-10.8262v-3.0205h10.8262v3.0205Z"/>
    <path class="cls-2" d="M408.2803,636.3125h-2.9912v-13.4878h-7.9248v-2.9609h18.8115v2.9609h-7.8955v13.4878Z"/>
    <path class="cls-2" d="M450.4775,636.3125h-13.4873c-1.4561,0-2.7715-.269-3.9482-.8076-1.1768-.5381-2.1885-1.2856-3.0352-2.2427-.8477-.957-1.501-2.0684-1.959-3.335-.459-1.2656-.6885-2.6265-.6885-4.082,0-1.4355.2295-2.7861.6885-4.0522.458-1.2661,1.1113-2.3823,1.959-3.3496.8467-.9668,1.8584-1.7197,3.0352-2.2583,1.1768-.5381,2.4922-.8071,3.9482-.8071h13.4873v2.9907h-13.4873c-1.376,0-2.5576.334-3.5439,1.0015-.9873.6685-1.75,1.5703-2.2881,2.7065-.5381,1.1367-.8076,2.3926-.8076,3.7686s.2695,2.627.8076,3.7534,1.3008,2.0288,2.2881,2.7065c.9863.6777,2.168,1.0166,3.5439,1.0166h10.4971v-5.9814h-12.6807v-2.9907h15.6709v11.9629Z"/>
    <path class="cls-2" d="M472.8779,636.3125h-2.9912v-4.5161h-11.5137v-3.0503h11.5137v-5.9214h-7.7754c-.9775,0-1.8643.2393-2.6621.7178-.7969.4785-1.4355,1.1113-1.9141,1.8989-.4785.7881-.7178,1.6699-.7178,2.647v8.2241h-3.0205v-8.2241c0-1.1367.2148-2.208.6436-3.2153.4287-1.0063,1.0264-1.8887,1.7939-2.6465s1.6553-1.3506,2.6621-1.7798c1.0068-.4282,2.0781-.6426,3.2148-.6426h10.7666v16.5083Z"/>
    <path class="cls-2" d="M496.085,636.3125h-4.0674l-4.665-4.4561h-6.0713v-2.9609h8.2842c.8369,0,1.5498-.3037,2.1387-.9121.5869-.6079.8818-1.3203.8818-2.1382,0-.8374-.2949-1.5503-.8818-2.1382-.5889-.5879-1.3018-.8823-2.1387-.8823h-9.8398v13.4878h-2.9902v-16.4487h12.8301c1.1162,0,2.123.269,3.0205.8076.8975.5381,1.6152,1.2612,2.1533,2.168.5381.9077.8076,1.9097.8076,3.0059,0,.897-.1846,1.7397-.5537,2.5269-.3691.7881-.877,1.4658-1.5254,2.0337-.6475.5684-1.3906.9722-2.2275,1.2114l4.8447,4.6953Z"/>
    <path class="cls-2" d="M517.4688,636.3125h-2.9912v-4.5161h-11.5137v-3.0503h11.5137v-5.9214h-7.7754c-.9775,0-1.8643.2393-2.6621.7178-.7969.4785-1.4355,1.1113-1.9141,1.8989-.4785.7881-.7178,1.6699-.7178,2.647v8.2241h-3.0205v-8.2241c0-1.1367.2148-2.208.6436-3.2153.4287-1.0063,1.0264-1.8887,1.7939-2.6465s1.6553-1.3506,2.6621-1.7798c1.0068-.4282,2.0781-.6426,3.2148-.6426h10.7666v16.5083Z"/>
    <path class="cls-2" d="M538.6426,636.3125h-10.6172c-1.5361,0-2.8818-.3687-4.0371-1.1064-1.1572-.7373-2.0537-1.7349-2.6924-2.9907-.6377-1.2563-.957-2.6514-.957-4.187s.3193-2.9204.957-4.1572c.6387-1.2358,1.5352-2.2227,2.6924-2.9604,1.1553-.7373,2.501-1.1064,4.0371-1.1064h10.6172v3.0205h-10.6172c-.957,0-1.7852.2344-2.4824.7026-.6982.4688-1.2363,1.0918-1.6152,1.8691-.3789.7778-.5684,1.6553-.5684,2.6318,0,.9771.1895,1.8647.5684,2.6616.3789.7979.917,1.4312,1.6152,1.8989.6973.4688,1.5254.7031,2.4824.7031h7.5957v-3.7983h-8.583v-3.0205h11.6045v9.8394Z"/>
    <path class="cls-2" d="M559.1572,636.3125h-17.166v-16.5083h17.166v3.0205h-14.1455v10.4673h14.1455v3.0205ZM557.2432,629.4937h-10.8262v-3.0205h10.8262v3.0205Z"/>
  </g>
</svg>