<?xml version="1.0" encoding="UTF-8"?>
<svg id="Master_with_tag" data-name="Master with tag" xmlns="http://www.w3.org/2000/svg" version="1.1" viewBox="0 0 1080 1080">
  <defs>
    <style>
      .cls-1 {
        fill: #ed1c24;
      }

      .cls-1, .cls-2 {
        stroke-width: 0px;
      }

      .cls-2 {
        fill: #fff;
      }
    </style>
  </defs>
  <g>
    <polygon class="cls-1" points="224.4992 443.7729 232.897 499.5365 946.9804 514.5684 215.835 514.5684 224.4992 443.7729"/>
    <polyline class="cls-2" points="131.2187 517.9883 215.733 533.0202 225.3253 631.042 232.795 517.9883 131.2187 517.9883"/>
  </g>
  <g>
    <path class="cls-2" d="M244.7861,597.8271l10.3008-48.7002h-17.2002l3.2998-15.7002h56l-3.2998,15.7002h-17.2998l-10.3008,48.7002h-21.5Z"/>
    <path class="cls-2" d="M287.5869,597.8271l13.5996-64.4004h21.5l-4.7002,22.5h19.1006l4.6992-22.5h21.5l-13.5996,64.4004h-21.5l4.7002-22.5h-19.1006l-4.6992,22.5h-21.5Z"/>
    <path class="cls-2" d="M357.7861,597.8271l13.5996-64.4004h34.7998c6.1328,0,10.8828,1.6348,14.25,4.9004,3.3662,3.2666,5.0498,7.5674,5.0498,12.8994,0,1.8008-.1992,3.7002-.5996,5.7002-.8672,4.335-2.667,8.1504-5.4004,11.4502-2.7344,3.2998-6.167,5.917-10.2998,7.8496.6006.5352,1.083,1.1846,1.4502,1.9502.3652.7676.6504,1.585.8496,2.4502l3.9004,17.2002h-22.4004l-3.5-14.9004c-.1992-.9326-.5342-1.6152-1-2.0498-.4668-.4326-1.2666-.6504-2.3994-.6504h-3.1006l-3.6992,17.6006h-21.5ZM386.4854,563.627h7.9004c2.7324,0,4.7324-.5654,6-1.7002,1.2656-1.1328,2.1328-2.7998,2.5996-5,.2002-1,.3008-1.8994.3008-2.7002,0-1.3994-.418-2.4326-1.25-3.0996-.835-.666-2.25-1-4.25-1h-8.4004l-2.9004,13.5Z"/>
    <path class="cls-2" d="M452.085,598.8271c-5.5342,0-10.3848-.8174-14.5498-2.4502-4.168-1.6328-7.4004-4.166-9.7002-7.5996s-3.4502-7.8506-3.4502-13.25c0-1.5332.083-3.1006.25-4.7002.166-1.6006.4502-3.2998.8496-5.1006,1.7334-8.0654,4.3164-14.5322,7.75-19.3994,3.4336-4.8662,7.8662-8.4004,13.3008-10.6006,5.4326-2.1992,12.0156-3.2998,19.75-3.2998,8.5322,0,15.2822,1.9004,20.25,5.7002,4.9648,3.7998,7.4492,9.7344,7.4492,17.7998,0,1.4678-.084,3.0176-.25,4.6504-.167,1.6338-.4492,3.3496-.8496,5.1494-1.667,7.9346-4.2168,14.335-7.6504,19.2002-3.4336,4.8672-7.8672,8.4004-13.2998,10.6006-5.4346,2.2002-12.0498,3.2998-19.8496,3.2998ZM455.9844,580.627c4.1328,0,7.3662-1.166,9.7002-3.5s4.0654-6.1328,5.2002-11.4004c.5996-2.7998.9004-5.1328.9004-7,0-2.9326-.7344-5-2.2002-6.1992-1.4678-1.2002-3.8672-1.8008-7.2002-1.8008-4.2002,0-7.4668,1.1172-9.7998,3.3506-2.335,2.2344-4.0674,6.1172-5.2002,11.6494-.5996,2.668-.9004,4.9346-.9004,6.8008,0,2.8672.75,4.9336,2.25,6.1992,1.5,1.2676,3.916,1.9004,7.25,1.9004Z"/>
    <path class="cls-2" d="M504.3838,597.8271l10.3008-48.7002h-17.2002l3.2998-15.7002h56l-3.2998,15.7002h-17.2998l-10.3008,48.7002h-21.5Z"/>
    <path class="cls-2" d="M563.8828,597.8271l10.3008-48.7002h-17.2002l3.2998-15.7002h56l-3.2998,15.7002h-17.2998l-10.3008,48.7002h-21.5Z"/>
    <path class="cls-2" d="M606.6826,597.8271l13.5996-64.4004h21.5l-10.2002,48h27.6006l-3.4004,16.4004h-49.0996Z"/>
    <path class="cls-2" d="M659.8828,597.8271l13.5996-64.4004h50.0996l-3.2998,15.9004h-28.5996l-1.7998,8.2002h24.8994l-3.3994,16.2998h-24.9004l-1.7998,8.0996h28.5996l-3.2998,15.9004h-50.0996Z"/>
    <path class="cls-1" d="M750.3818,598.8271c-6.2002,0-11.6172-.9502-16.25-2.8506-4.6348-1.8994-8.25-4.6992-10.8506-8.3994-2.5996-3.7002-3.8994-8.25-3.8994-13.6504,0-2.5322.2998-5.2324.8994-8.0996,2.333-10.9326,6.9658-19.2334,13.9004-24.9004,6.9326-5.665,17-8.5,30.2002-8.5,3.9326,0,7.4502.2998,10.5498.9004,3.0996.5996,5.9824,1.4668,8.6504,2.5996l-4,18.7002c-2.668-1.4004-5.3174-2.416-7.9502-3.0498-2.6348-.6328-5.8506-.9502-9.6504-.9502-5.3994,0-9.7666,1.1504-13.0996,3.4502-3.335,2.2998-5.5674,6.2168-6.7002,11.75-.2002,1.0674-.3672,2.0674-.5,3-.1348.9346-.2002,1.7998-.2002,2.5996,0,3.4004,1.1162,5.7842,3.3506,7.1504,2.2324,1.3672,5.8828,2.0498,10.9492,2.0498,3.2656,0,6.4834-.3154,9.6504-.9502,3.166-.6328,6.3828-1.6152,9.6504-2.9502l-4,18.8008c-3.1348,1.0674-6.3506,1.8838-9.6504,2.4502-3.2998.5654-6.9844.8496-11.0498.8496Z"/>
    <path class="cls-1" d="M802.9814,598.8271c-7.8672,0-13.8506-1.5654-17.9502-4.7002-4.0996-3.1328-6.1504-7.6328-6.1504-13.5,0-1,.0508-2.0498.1504-3.1504.0996-1.0996.2832-2.2148.5498-3.3496,1.7334-8.1328,5.2656-14.2832,10.6006-18.4502,5.332-4.165,13.0996-6.25,23.2998-6.25,8,0,14.0654,1.585,18.2002,4.75,4.1328,3.167,6.1992,7.7178,6.1992,13.6504,0,1-.0664,2.0166-.1992,3.0498-.1348,1.0342-.3008,2.1172-.5,3.25-1.668,8.1348-5.2178,14.2842-10.6504,18.4502-5.4346,4.167-13.2842,6.25-23.5498,6.25ZM806.2812,583.3271c2.4004,0,4.333-.7002,5.7998-2.1006,1.4658-1.3994,2.5332-3.7656,3.2002-7.0996.4004-1.7324.5996-3.166.5996-4.2998,0-1.7334-.4492-2.9834-1.3496-3.75-.9004-.7656-2.3496-1.1504-4.3496-1.1504-2.335,0-4.1846.7002-5.5508,2.1006-1.3672,1.3994-2.417,3.7666-3.1494,7.0996-.4004,1.7998-.6006,3.2998-.6006,4.5,0,1.667.4336,2.8672,1.3008,3.5996.8652.7344,2.2324,1.1006,4.0996,1.1006Z"/>
    <path class="cls-1" d="M849.4805,597.8271l-8.6992-47.4004h21.7998l2.2998,24.7998,12.7998-24.7998h23l-28.7002,47.4004h-22.5Z"/>
    <path class="cls-1" d="M917.6816,598.8271c-4.668,0-8.8174-.7168-12.4502-2.1504-3.6348-1.4326-6.5-3.5498-8.6006-6.3496-2.0996-2.7998-3.1494-6.2656-3.1494-10.4004,0-1.7324.2002-3.5996.5996-5.5996,1.1328-5.0654,2.8828-9.4502,5.25-13.1504,2.3662-3.7002,5.666-6.583,9.9004-8.6494,4.2324-2.0664,9.6826-3.1006,16.3496-3.1006,6.6006,0,11.8154,1.6504,15.6504,4.9502,3.833,3.2998,5.75,7.6172,5.75,12.9502,0,.7344-.0498,1.5-.1504,2.2998-.0996.7998-.2168,1.5996-.3496,2.4004l-1.7002,8.1992h-32.2002c.333,1.9346,1.5332,3.335,3.6006,4.2002,2.0654.8672,5.332,1.2998,9.7998,1.2998,2.9326,0,5.833-.25,8.7002-.75,2.8652-.5,5.1992-1.082,7-1.75l-2.6006,12.2002c-5.2002,2.2676-12.334,3.4004-21.3994,3.4004ZM913.9814,569.0273h15.7998l.2002-1.3008c.2002-1.3994-.2178-2.5996-1.25-3.5996-1.0342-1-2.7842-1.5-5.25-1.5-2.8672,0-5.0674.5674-6.6006,1.7002-1.5342,1.1338-2.5,2.7002-2.8994,4.7002Z"/>
  </g>
</svg>