<?xml version="1.0" encoding="UTF-8"?>
<svg id="Wordmark" xmlns="http://www.w3.org/2000/svg" version="1.1" viewBox="0 0 1080 1080">
  <defs>
    <style>
      .cls-1 {
        fill: #000;
      }

      .cls-1, .cls-2 {
        stroke-width: 0px;
      }

      .cls-2 {
        fill: #ed1c24;
      }

      .cls-3 {
        fill: #231f20;
        stroke: #231f20;
        stroke-miterlimit: 10;
      }
    </style>
  </defs>
  <g>
    <polygon class="cls-2" points="158.82 423.7409 168.9661 491.113 1031.7032 509.2742 148.3522 509.2742 158.82 423.7409"/>
    <polyline class="cls-3" points="46.121 513.406 148.229 531.5672 159.8181 649.9945 168.8428 513.406 46.121 513.406"/>
  </g>
  <g>
    <path class="cls-1" d="M183.3301,609.8643l12.4443-58.8379h-20.7808l3.9873-18.9688h67.6577l-3.9873,18.9688h-20.9014l-12.4438,58.8379h-25.9761Z"/>
    <path class="cls-1" d="M235.0396,609.8643l16.4312-77.8066h25.9756l-5.6782,27.1846h23.0762l5.6782-27.1846h25.9761l-16.4312,77.8066h-25.9761l5.6787-27.1836h-23.0762l-5.6787,27.1836h-25.9756Z"/>
    <path class="cls-1" d="M319.853,609.8643l16.4312-77.8066h42.0444c7.4097,0,13.1484,1.9746,17.2163,5.9199,4.0664,3.9473,6.1016,9.1426,6.1016,15.5859,0,2.1748-.2417,4.4697-.7251,6.8867-1.0474,5.2363-3.2222,9.8467-6.5239,13.833-3.3037,3.9873-7.4512,7.1494-12.4443,9.4844.7251.6455,1.3081,1.4307,1.752,2.3564.4419.9268.7852,1.9141,1.0269,2.96l4.7119,20.7803h-27.063l-4.2285-18.002c-.2417-1.127-.646-1.9521-1.2085-2.4766-.5645-.5234-1.5308-.7852-2.8994-.7852h-3.7456l-4.4702,21.2637h-25.9756ZM354.5278,568.5449h9.5444c3.3018,0,5.7183-.6836,7.249-2.0537,1.5293-1.3691,2.5767-3.3828,3.1411-6.041.2417-1.208.3628-2.2959.3628-3.2627,0-1.6914-.5044-2.9385-1.5103-3.7451-1.0083-.8037-2.7188-1.208-5.1348-1.208h-10.1489l-3.5034,16.3105Z"/>
    <path class="cls-1" d="M433.7827,611.0723c-6.6865,0-12.5464-.9873-17.5791-2.96-5.0347-1.9727-8.9404-5.0322-11.7192-9.1816-2.7788-4.1475-4.168-9.4844-4.168-16.0088,0-1.8516.1001-3.7451.3018-5.6787.2002-1.9326.5439-3.9863,1.0269-6.1611,2.0938-9.7451,5.2144-17.5586,9.3638-23.4385,4.1475-5.8789,9.5029-10.1494,16.0684-12.8066,6.564-2.6582,14.5171-3.9873,23.8618-3.9873,10.3091,0,18.4639,2.2959,24.4653,6.8867,5.9995,4.5908,9.001,11.7607,9.001,21.5059,0,1.7725-.1021,3.6445-.3022,5.6172-.2017,1.9746-.5435,4.0479-1.0269,6.2227-2.0142,9.5859-5.0952,17.3184-9.2427,23.1973-4.1494,5.8799-9.5049,10.1484-16.0684,12.8066-6.5659,2.6572-14.5586,3.9863-23.9824,3.9863ZM438.4946,589.084c4.9932,0,8.8989-1.4082,11.7192-4.2285,2.8184-2.8193,4.9121-7.4102,6.2827-13.7734.7246-3.3828,1.0869-6.2012,1.0869-8.457,0-3.5439-.8872-6.041-2.6577-7.4912-1.7725-1.4492-4.6724-2.1748-8.6987-2.1748-5.0747,0-9.022,1.3496-11.8403,4.0479-2.8203,2.6992-4.9141,7.3906-6.2822,14.0752-.7251,3.2227-1.0874,5.9609-1.0874,8.2158,0,3.4639.9058,5.9609,2.7183,7.4902,1.812,1.5312,4.7305,2.2959,8.7593,2.2959Z"/>
    <path class="cls-1" d="M496.9692,609.8643l12.4443-58.8379h-20.7808l3.9873-18.9688h67.6577l-3.9873,18.9688h-20.9014l-12.4438,58.8379h-25.9761Z"/>
    <path class="cls-1" d="M568.854,609.8643l12.4443-58.8379h-20.7808l3.9873-18.9688h67.6577l-3.9873,18.9688h-20.9014l-12.4438,58.8379h-25.9761Z"/>
    <path class="cls-1" d="M620.564,609.8643l16.4312-77.8066h25.9756l-12.3232,57.9922h33.3457l-4.1079,19.8145h-59.3213Z"/>
    <path class="cls-1" d="M684.8384,609.8643l16.4312-77.8066h60.5298l-3.9873,19.21h-34.5537l-2.1748,9.9072h30.0835l-4.1074,19.6934h-30.0835l-2.1748,9.7861h34.5537l-3.9868,19.21h-60.5298Z"/>
    <path class="cls-2" d="M794.1772,611.0723c-7.4907,0-14.0356-1.1475-19.6328-3.4434-5.5991-2.2949-9.9673-5.6777-13.1089-10.1484-3.1411-4.4707-4.7114-9.9678-4.7114-16.4912,0-3.0605.3623-6.3223,1.0869-9.7861,2.8188-13.209,8.416-23.2373,16.7939-30.084,8.376-6.8447,20.5391-10.2695,36.4868-10.2695,4.7515,0,9.001.3623,12.7461,1.0879,3.7456.7246,7.2285,1.7725,10.4507,3.1406l-4.8325,22.5928c-3.2227-1.6914-6.4243-2.918-9.605-3.6846-3.1826-.7646-7.0679-1.1475-11.6592-1.1475-6.5239,0-11.8003,1.3887-15.8267,4.168-4.0288,2.7783-6.7266,7.5117-8.0947,14.1963-.2417,1.2891-.4438,2.4971-.6045,3.624-.1621,1.1289-.2417,2.1748-.2417,3.1416,0,4.1074,1.3481,6.9883,4.0479,8.6377,2.6973,1.6523,7.1074,2.4775,13.2295,2.4775,3.9453,0,7.832-.3818,11.6587-1.1484,3.8247-.7646,7.7114-1.9512,11.6587-3.5635l-4.8325,22.7139c-3.7871,1.2891-7.6719,2.2764-11.6587,2.96-3.9873.6826-8.4385,1.0264-13.3506,1.0264Z"/>
    <path class="cls-2" d="M857.7261,611.0723c-9.5049,0-16.7329-1.8916-21.6865-5.6787-4.9536-3.7842-7.4302-9.2217-7.4302-16.3096,0-1.209.0601-2.4775.1812-3.8057.1206-1.3291.3418-2.6777.6646-4.0479,2.0933-9.8262,6.3618-17.2559,12.8066-22.291,6.4429-5.0322,15.8271-7.5508,28.1504-7.5508,9.6655,0,16.9937,1.9141,21.9888,5.7393,4.9932,3.8262,7.4907,9.3232,7.4907,16.4912,0,1.208-.0815,2.4365-.2417,3.6846-.1626,1.25-.3623,2.5586-.604,3.9268-2.0146,9.8281-6.3032,17.2578-12.8672,22.291-6.5659,5.0342-16.0498,7.5508-28.4526,7.5508ZM861.7134,592.3457c2.8994,0,5.2344-.8457,7.0073-2.5371,1.7705-1.6914,3.0601-4.5498,3.8662-8.5781.4829-2.0938.7246-3.8242.7246-5.1953,0-2.0938-.5435-3.6035-1.6309-4.5303-1.0874-.9248-2.8394-1.3896-5.2559-1.3896-2.8203,0-5.0552.8457-6.7051,2.5371-1.6519,1.6914-2.9204,4.5518-3.8057,8.5781-.4834,2.1748-.7251,3.9873-.7251,5.4365,0,2.0146.5229,3.4648,1.5708,4.3496,1.0459.8877,2.6973,1.3291,4.9536,1.3291Z"/>
    <path class="cls-2" d="M913.9072,609.8643l-10.5112-57.2676h26.3379l2.7788,29.9629,15.4648-29.9629h27.7881l-34.6748,57.2676h-27.1836Z"/>
    <path class="cls-2" d="M996.3042,611.0723c-5.6387,0-10.6528-.8662-15.0415-2.5977-4.3911-1.7305-7.8535-4.2891-10.3906-7.6719s-3.8057-7.5693-3.8057-12.5645c0-2.0938.2417-4.3496.7251-6.7666,1.3687-6.1201,3.4829-11.417,6.3428-15.8867,2.8579-4.4707,6.8452-7.9531,11.9609-10.4512,5.1138-2.4951,11.6982-3.7451,19.7534-3.7451,7.9741,0,14.2754,1.9932,18.9082,5.9805,4.6309,3.9873,6.9468,9.2031,6.9468,15.6455,0,.8877-.0601,1.8125-.1812,2.7793-.1206.9668-.2622,1.9326-.4229,2.8994l-2.0537,9.9072h-38.9033c.4019,2.3369,1.8521,4.0283,4.3496,5.0742,2.4956,1.0479,6.4429,1.5703,11.8398,1.5703,3.5435,0,7.0469-.3018,10.5112-.9062,3.4619-.6035,6.2822-1.3076,8.457-2.1143l-3.1411,14.7402c-6.2827,2.7393-14.9019,4.1074-25.855,4.1074ZM991.834,575.0684h19.0894l.2412-1.5703c.2417-1.6914-.2622-3.1406-1.5098-4.3496-1.25-1.208-3.3643-1.8115-6.3433-1.8115-3.4639,0-6.1221.6846-7.9736,2.0537-1.854,1.3701-3.0205,3.2617-3.5039,5.6777Z"/>
  </g>
</svg>